# xmcd
# Copyright (C) 1995-1998 Ti Kan
#
# Track frame offsets:
#       150
#       14239
#       31447
#       53621
#       69560
#       86164
#       102072
#       121715
#       139918
#       153659
#       172710
#       193039
#
# Disc length: 2909 seconds
#
# Revision: 0
# Processed by: cddbd v1.5.2PL0 Copyright (c) Steve Scherf et al.
# Submitted via: CD-Transfer v1.0
#
DISCID=9d0b5b0c
DTITLE=Acriss - 
DYEAR=2005
DGENRE=
TTITLE0=Sezam
TTITLE1=Nie Powiem Nic
TTITLE2=Droga Do
TTITLE3=Wiara Nadzieja Milosc
TTITLE4=Slodkie Slowa
TTITLE5=Anioly Nocy
TTITLE6=Betlejemski Znaczek
TTITLE7=Chwile Dwie W Twoich Ramionach
TTITLE8=Perla Oceanu
TTITLE9=Jak Lania
TTITLE10=Jezuz Zbawicielem
TTITLE11=Podaj Dlon
EXTD=
EXTT0=
EXTT1=
EXTT2=
EXTT3=
EXTT4=
EXTT5=
EXTT6=
EXTT7=
EXTT8=
EXTT9=
EXTT10=
EXTT11=
PLAYORDER=
